<?xml version="1.0" encoding="UTF-8"?>
<svg version="1.1" xmlns="http://www.w3.org/2000/svg" width="32" height="33">
<path d="M0 0 C10.56 0 21.12 0 32 0 C32 10.89 32 21.78 32 33 C21.44 33 10.88 33 0 33 C0 22.11 0 11.22 0 0 Z " fill="#0A2B4E" transform="translate(0,0)"/>
<path d="M0 0 C0.90105469 0.02707031 1.80210938 0.05414062 2.73046875 0.08203125 C3.76107422 0.13423828 3.76107422 0.13423828 4.8125 0.1875 C4.8125 0.8475 4.8125 1.5075 4.8125 2.1875 C0.3575 2.6825 0.3575 2.6825 -4.1875 3.1875 C-4.1875 7.8075 -4.1875 12.4275 -4.1875 17.1875 C2.7425 17.1875 9.6725 17.1875 16.8125 17.1875 C17.1425 15.5375 17.4725 13.8875 17.8125 12.1875 C18.8025 12.1875 19.7925 12.1875 20.8125 12.1875 C21.15788204 15.29593835 21.04551458 16.81265045 19.375 19.5 C15.62016223 21.97269805 12.18498747 21.52384519 7.8125 21.1875 C7.8125 21.8475 7.8125 22.5075 7.8125 23.1875 C9.4625 23.1875 11.1125 23.1875 12.8125 23.1875 C13.1425 24.1775 13.4725 25.1675 13.8125 26.1875 C8.8625 26.1875 3.9125 26.1875 -1.1875 26.1875 C-1.1875 25.1975 -1.1875 24.2075 -1.1875 23.1875 C0.7925 23.1875 2.7725 23.1875 4.8125 23.1875 C4.8125 22.5275 4.8125 21.8675 4.8125 21.1875 C3.78189453 21.23970703 3.78189453 21.23970703 2.73046875 21.29296875 C1.82941406 21.32003906 0.92835937 21.34710937 0 21.375 C-1.33998047 21.42720703 -1.33998047 21.42720703 -2.70703125 21.48046875 C-5.1875 21.1875 -5.1875 21.1875 -6.98828125 20.14453125 C-8.8314092 17.13669053 -8.62108857 14.10516656 -8.5625 10.6875 C-8.57410156 10.01074219 -8.58570313 9.33398438 -8.59765625 8.63671875 C-8.58088293 5.80202759 -8.48799887 3.67789067 -6.98828125 1.23046875 C-4.54912359 -0.18223211 -2.7995831 -0.10907467 0 0 Z " fill="#DCEFFA" transform="translate(9.1875,5.8125)"/>
<path d="M0 0 C0.66 1.32 1.32 2.64 2 4 C4.49505962 6.49505962 5.67328888 6.35948376 9.125 6.625 C10.03507813 6.69976563 10.94515625 6.77453125 11.8828125 6.8515625 C12.58148438 6.90054687 13.28015625 6.94953125 14 7 C14 7.66 14 8.32 14 9 C12.02 9 10.04 9 8 9 C8 9.99 8 10.98 8 12 C12.95 12 17.9 12 23 12 C22.67 11.34 22.34 10.68 22 10 C19.47266765 9.34444881 19.47266765 9.34444881 17 9 C17 8.34 17 7.68 17 7 C17.83144531 6.95101563 18.66289062 6.90203125 19.51953125 6.8515625 C20.60621094 6.77679687 21.69289063 6.70203125 22.8125 6.625 C23.89144531 6.55539063 24.97039063 6.48578125 26.08203125 6.4140625 C29.18626186 6.18804267 29.18626186 6.18804267 32 4 C32 6.97 32 9.94 32 13 C21.44 13 10.88 13 0 13 C0 8.71 0 4.42 0 0 Z " fill="#07284A" transform="translate(0,20)"/>
<path d="M0 0 C2.62846098 2.42095091 3.81388233 4.04614692 4.5 7.5625 C3.8102744 10.9249123 2.81866476 12.0486167 0 14 C-5.9813322 14.73454957 -5.9813322 14.73454957 -8.72265625 12.7578125 C-10.40722404 10.43959995 -10.23592628 9.24624681 -9.875 6.4375 C-9.78992188 5.65246094 -9.70484375 4.86742187 -9.6171875 4.05859375 C-8.21357763 -0.62306703 -4.14958154 -0.59279736 0 0 Z " fill="#CCE4F2" transform="translate(26,3)"/>
<path d="M0 0 C0.66 0 1.32 0 2 0 C2.33 1.98 2.66 3.96 3 6 C4.32 6 5.64 6 7 6 C7.33 4.35 7.66 2.7 8 1 C8.66 1.66 9.32 2.32 10 3 C9.625 6.625 9.625 6.625 9 10 C6.36 9.67 3.72 9.34 1 9 C0.67 10.32 0.34 11.64 0 13 C0.99 12.34 1.98 11.68 3 11 C4.32 11 5.64 11 7 11 C7 11.66 7 12.32 7 13 C7.556875 12.814375 8.11375 12.62875 8.6875 12.4375 C11.399133 11.92448835 13.34371039 12.3359276 16 13 C16 13.66 16 14.32 16 15 C13.18743719 15.02684312 10.37512759 15.04676188 7.5625 15.0625 C6.76005859 15.07087891 5.95761719 15.07925781 5.13085938 15.08789062 C3.08704779 15.0965143 1.04316098 15.0522815 -1 15 C-2 14 -2 14 -2.09765625 11.27734375 C-2.08605469 10.17519531 -2.07445312 9.07304687 -2.0625 7.9375 C-2.05347656 6.83277344 -2.04445312 5.72804688 -2.03515625 4.58984375 C-2.02355469 3.73519531 -2.01195312 2.88054688 -2 2 C-1.34 1.67 -0.68 1.34 0 1 C0 0.67 0 0.34 0 0 Z " fill="#072C46" transform="translate(6,9)"/>
<path d="M0 0 C0.99 0.66 1.98 1.32 3 2 C8.33468429 2.38464895 8.33468429 2.38464895 13 0 C13.33 1.32 13.66 2.64 14 4 C13.01 4 12.02 4 11 4 C11 5.65 11 7.3 11 9 C9.35 9.33 7.7 9.66 6 10 C6 9.34 6 8.68 6 8 C3.03 8 0.06 8 -3 8 C-3 7.34 -3 6.68 -3 6 C-5.31 6.66 -7.62 7.32 -10 8 C-9.67 6.68 -9.34 5.36 -9 4 C-6.69 4 -4.38 4 -2 4 C-1.34 2.68 -0.68 1.36 0 0 Z " fill="#1A3251" transform="translate(16,14)"/>
<path d="M0 0 C0.90105469 0.02707031 1.80210938 0.05414062 2.73046875 0.08203125 C3.76107422 0.13423828 3.76107422 0.13423828 4.8125 0.1875 C4.8125 0.8475 4.8125 1.5075 4.8125 2.1875 C0.3575 2.6825 0.3575 2.6825 -4.1875 3.1875 C-4.1875 7.8075 -4.1875 12.4275 -4.1875 17.1875 C2.4125 17.5175 9.0125 17.8475 15.8125 18.1875 C15.8125 18.5175 15.8125 18.8475 15.8125 19.1875 C12.70840179 19.35545811 9.60421114 19.52164323 6.5 19.6875 C5.61892578 19.73519531 4.73785156 19.78289063 3.83007812 19.83203125 C2.55874023 19.89970703 2.55874023 19.89970703 1.26171875 19.96875 C0.48143311 20.01064453 -0.29885254 20.05253906 -1.1027832 20.09570312 C-2.79632396 20.17027524 -4.49231821 20.1875 -6.1875 20.1875 C-8.66135671 17.71364329 -8.47321102 16.21245772 -8.50976562 12.82617188 C-8.50654297 12.14103516 -8.50332031 11.45589844 -8.5 10.75 C-8.51611328 10.06873047 -8.53222656 9.38746094 -8.54882812 8.68554688 C-8.55162185 5.83315091 -8.4969364 3.69513749 -6.9921875 1.2265625 C-4.5505005 -0.17925729 -2.79872111 -0.10904108 0 0 Z " fill="#A8C3DA" transform="translate(9.1875,5.8125)"/>
<path d="M0 0 C2.5 0.25 2.5 0.25 4.5 2.25 C4.75 4.75 4.75 4.75 4.5 7.25 C2.5 9.25 2.5 9.25 0 9.5 C-2.5 9.25 -2.5 9.25 -4.5 7.25 C-4.75 4.75 -4.75 4.75 -4.5 2.25 C-2.5 0.25 -2.5 0.25 0 0 Z " fill="#5A748D" transform="translate(22.5,5.75)"/>
<path d="M0 0 C0.99 0 1.98 0 3 0 C2.5205537 4.21912747 1.83374881 6.79663178 -1 10 C-2.65 9.67 -4.3 9.34 -6 9 C-6 7.02 -6 5.04 -6 3 C-6.99 3.99 -7.98 4.98 -9 6 C-9 4.68 -9 3.36 -9 2 C-6.03 2 -3.06 2 0 2 C0 1.34 0 0.68 0 0 Z " fill="#284B66" transform="translate(14,6)"/>
<path d="M0 0 C2.0625 1.75 2.0625 1.75 4 4 C3.75 6.25 3.75 6.25 3 8 C1.02 8 -0.96 8 -3 8 C-3 7.34 -3 6.68 -3 6 C-5.31 6.66 -7.62 7.32 -10 8 C-9.67 6.68 -9.34 5.36 -9 4 C-6.69 4 -4.38 4 -2 4 C-1.34 2.68 -0.68 1.36 0 0 Z " fill="#11344F" transform="translate(16,14)"/>
<path d="M0 0 C0.99 0 1.98 0 3 0 C3 0.66 3 1.32 3 2 C4.65 2 6.3 2 8 2 C8.33 2.99 8.66 3.98 9 5 C4.05 5 -0.9 5 -6 5 C-6 4.01 -6 3.02 -6 2 C-4.02 2 -2.04 2 0 2 C0 1.34 0 0.68 0 0 Z " fill="#AAC1D6" transform="translate(14,27)"/>
<path d="M0 0 C0.66 0.66 1.32 1.32 2 2 C1.625 5.625 1.625 5.625 1 9 C-5.875 8.125 -5.875 8.125 -7 7 C-7.04063832 5.33382885 -7.042721 3.66611905 -7 2 C-6.01 3.485 -6.01 3.485 -5 5 C-3.68 5 -2.36 5 -1 5 C-0.67 3.35 -0.34 1.7 0 0 Z " fill="#043E50" transform="translate(14,10)"/>
<path d="M0 0 C2.125 0.9375 2.125 0.9375 4 2 C3.67 3.32 3.34 4.64 3 6 C1.35 5.67 -0.3 5.34 -2 5 C-2 3.68 -2 2.36 -2 1 C-1.34 0.67 -0.68 0.34 0 0 Z " fill="#56B8C4" transform="translate(10,10)"/>
<path d="M0 0 C0.78375 0.04125 1.5675 0.0825 2.375 0.125 C2.705 1.115 3.035 2.105 3.375 3.125 C1.725 3.125 0.075 3.125 -1.625 3.125 C-1.955 4.445 -2.285 5.765 -2.625 7.125 C-3.285 7.125 -3.945 7.125 -4.625 7.125 C-4.75 4.75 -4.75 4.75 -4.625 2.125 C-2.625 0.125 -2.625 0.125 0 0 Z " fill="#18314C" transform="translate(22.625,5.875)"/>
<path d="M0 0 C2.8125 -0.25 2.8125 -0.25 6 0 C7.9375 1.6875 7.9375 1.6875 9 4 C8.6875 6.75 8.6875 6.75 8 9 C7.6596875 8.071875 7.6596875 8.071875 7.3125 7.125 C5.61583557 4.3780195 3.94748289 4.13364727 1 3 C0.67 2.01 0.34 1.02 0 0 Z " fill="#A0BED5" transform="translate(20,3)"/>
<path d="M0 0 C2.31 0 4.62 0 7 0 C7.33 1.32 7.66 2.64 8 4 C7.34 4 6.68 4 6 4 C6 3.34 6 2.68 6 2 C3.69 2.66 1.38 3.32 -1 4 C-0.67 2.68 -0.34 1.36 0 0 Z " fill="#5DB6C4" transform="translate(7,18)"/>
<path d="M0 0 C0.99 0 1.98 0 3 0 C3.20086443 3.71599191 3.1519437 4.77208445 1 8 C0.01 7.67 -0.98 7.34 -2 7 C-1.34 4.69 -0.68 2.38 0 0 Z " fill="#B7CEE2" transform="translate(27,18)"/>
</svg>
